<svg xmlns="http://www.w3.org/2000/svg" width="56" height="44" viewBox="0 0 56 44" fill="none">
  <g stroke="#8b6b35" stroke-width="0.55" stroke-linecap="round" stroke-linejoin="round">
    <polygon
      points="28,13 31.42,18.58 34.36,15.64 31.42,25.42 37,22 31.42,23.42 34.36,28.36 31.42,25.42 28,31 24.58,25.42 21.64,28.36 24.58,23.42 19,22 24.58,20.58 21.64,15.64 24.58,18.58"
    />
    <line x1="0" y1="22" x2="19" y2="22" />
    <line x1="37" y1="22" x2="56" y2="22" />
    <line x1="21.64" y1="15.64" x2="0" y2="1.25" />
    <line x1="34.36" y1="15.64" x2="56" y2="1.25" />
    <line x1="21.64" y1="28.36" x2="0" y2="42.75" />
    <line x1="34.36" y1="28.36" x2="56" y2="42.75" />
    <line x1="28" y1="13" x2="28" y2="1.25" />
    <line x1="28" y1="31" x2="28" y2="42.75" />
  </g>
</svg>
